# xmcd
#
# Track frame offsets: 
#        150
#        13147
#        33532
#
# Disc length: 748 seconds
#
# Revision: 0
# Processed by: cddbd v1.5.1PL0 Copyright (c) Steve Scherf et al.
# Submitted via: ExactAudioCopy v0.95b1
#
DISCID=1e02ea03
DTITLE=J. J. Cale - Long Way Home
DYEAR=1994
DGENRE=Blues
TTITLE0=Long Way Home
TTITLE1=Love is Hard to Find
TTITLE2=Slower Baby
EXTD=
EXTT0=
EXTT1=
EXTT2=
PLAYORDER=
